<?xml version="1.0" encoding="UTF-8" standalone="no"?>
<!-- Created with Inkscape (http://www.inkscape.org/) -->

<svg
   xmlns:dc="http://purl.org/dc/elements/1.1/"
   xmlns:cc="http://creativecommons.org/ns#"
   xmlns:rdf="http://www.w3.org/1999/02/22-rdf-syntax-ns#"
   xmlns:svg="http://www.w3.org/2000/svg"
   xmlns="http://www.w3.org/2000/svg"
   xmlns:sodipodi="http://sodipodi.sourceforge.net/DTD/sodipodi-0.dtd"
   xmlns:inkscape="http://www.inkscape.org/namespaces/inkscape"
   width="500"
   height="1000"
   id="svg3831"
   version="1.1"
   inkscape:version="0.48.5 r10040"
   sodipodi:docname="logo-all.svg"
   inkscape:export-filename="/Users/ispuk/Projects/bitexchange/public/img/logo.png"
   inkscape:export-xdpi="90"
   inkscape:export-ydpi="90">
  <sodipodi:namedview
     id="base"
     pagecolor="#ffffff"
     bordercolor="#666666"
     borderopacity="1.0"
     inkscape:pageopacity="0.0"
     inkscape:pageshadow="2"
     inkscape:zoom="1.4"
     inkscape:cx="282.31818"
     inkscape:cy="856.89566"
     inkscape:document-units="px"
     inkscape:current-layer="g3614"
     showgrid="false"
     inkscape:window-width="1141"
     inkscape:window-height="742"
     inkscape:window-x="91"
     inkscape:window-y="0"
     inkscape:window-maximized="0"
     showguides="true"
     inkscape:guide-bbox="true" />
  <defs
     id="defs3833" />
  <metadata
     id="metadata3836">
    <rdf:RDF>
      <cc:Work
         rdf:about="">
        <dc:format>image/svg+xml</dc:format>
        <dc:type
           rdf:resource="http://purl.org/dc/dcmitype/StillImage" />
        <dc:title></dc:title>
      </cc:Work>
    </rdf:RDF>
  </metadata>
  <g
     transform="translate(0,-52.36218)"
     id="layer1"
     inkscape:groupmode="layer"
     inkscape:label="Livello 1">
    <g
       id="g3614"
       transform="matrix(0.66258677,-0.00346106,0.00346106,0.66258677,22.59797,424.31201)"
       style="fill:#008080">
      <g
         id="g3700">
        <g
           transform="matrix(3.9246289,0.07873755,0.03416953,-1.7031636,768.03884,1091.0026)"
           style="font-size:22.13486671000000072px;font-style:normal;font-weight:bold;line-height:125%;letter-spacing:0px;word-spacing:0px;fill:#3ede73;fill-opacity:1;stroke:none;font-family:Sans;-inkscape-font-specification:Apple LiGothic Bold Italic"
           id="text3067">
          <path
             inkscape:connector-curvature="0"
             d="m -182.34069,941.35343 c 0,0 5.52838,-0.098 5.52838,-0.098 0,0 -3.3507,-41.19492 -3.3507,-41.19492 0,0 9.57341,0.33945 9.57341,0.33945 0,0 -0.77235,-9.90182 -0.77235,-9.90182 0,0 -15.21013,-0.73515 -15.21013,-0.73515 0,0 4.23139,51.5904 4.23139,51.5904"
             style="letter-spacing:-2.04736328px"
             id="path3338" />
          <path
             inkscape:connector-curvature="0"
             d="m -153.53244,908.52828 c 0,0 -0.16096,-1.8938 -0.16096,-1.8938 0,0 -11.41447,-0.31889 -11.41447,-0.31889 0,-0.1339 -0.005,-0.33674 -0.0138,-0.60605 -0.009,-0.24628 -0.0138,-0.43792 -0.0138,-0.57276 -1e-5,-2.44546 0.29952,-4.26382 0.89786,-5.45305 0.60658,-1.18702 1.51005,-1.75619 2.70831,-1.70935 1.03056,0.0403 2.11283,0.46118 3.24633,1.26098 1.13912,0.79774 2.3288,1.96047 3.56857,3.48684 0,0 -0.74067,-9.26191 -0.74067,-9.26191 -1.1791,-1.11866 -2.35737,-1.96274 -3.5348,-2.53093 -1.17203,-0.59181 -2.37052,-0.91887 -3.5957,-0.97966 -2.40703,-0.11943 -4.27791,1.14824 -5.60463,3.81081 -1.32202,2.67192 -1.98474,6.50718 -1.98474,11.49882 0,2.89111 0.21014,5.69649 0.63008,8.41361 0.4288,2.73681 1.04784,5.23632 1.85621,7.4968 0.95481,2.70615 2.09191,4.75474 3.40965,6.14719 1.32234,1.38755 2.78166,2.07762 4.37636,2.07381 2.05854,-0.005 3.68292,-1.35048 4.87868,-4.03009 1.20088,-2.6711 1.79989,-6.26728 1.7999,-10.79513 -1e-5,-0.88341 -0.0268,-1.82253 -0.0804,-2.81747 -0.0447,-0.9731 -0.12066,-2.0461 -0.22791,-3.21977 m -4.56049,5.35263 c 0.0271,0.29049 0.0452,0.57864 0.0543,0.86786 0.0181,0.31158 0.0271,0.61189 0.0271,0.90063 -1e-5,1.77813 -0.21723,3.18722 -0.65201,4.22781 -0.43531,1.04173 -1.02558,1.56006 -1.77154,1.55403 -0.95736,-0.008 -1.77531,-0.66265 -2.45293,-1.96624 -0.66967,-1.28347 -1.18418,-3.18316 -1.54291,-5.69919 0,0 6.33795,0.1151 6.33795,0.1151"
             style="font-family:Sans;-inkscape-font-specification:Sans Bold Italic"
             id="path3340" />
          <path
             inkscape:connector-curvature="0"
             d="m -136.52251,922.43511 c 0.70806,2.22694 1.50832,3.93251 2.40017,5.11779 0.89811,1.18229 1.82779,1.77121 2.7888,1.76892 1.26058,-0.003 2.24918,-0.89249 2.96802,-2.66565 0.7257,-1.74833 1.08802,-4.15627 1.08804,-7.22648 -2e-5,-0.63967 -0.0208,-1.37554 -0.0624,-2.20766 -0.0333,-0.81077 -0.0875,-1.73917 -0.1624,-2.7856 0,0 -1.66569,-21.8989 -1.66569,-21.8989 0,0 -4.56007,-0.2204 -4.56007,-0.2204 0,0 1.43355,18.87627 1.43355,18.87627 0,0 0.038,0.48383 0.038,0.48383 0.21935,2.66612 0.32899,4.37398 0.32901,5.12505 -2e-5,1.18023 -0.13496,2.11205 -0.40498,2.79591 -0.26181,0.68443 -0.62102,1.02463 -1.07792,1.02031 -0.87314,-0.008 -1.61652,-0.93131 -2.22933,-2.77111 -0.60534,-1.82139 -1.04077,-4.43074 -1.30568,-7.82823 0,0 -1.38757,-17.9246 -1.38757,-17.9246 0,0 -4.6765,-0.22603 -4.6765,-0.22603 0,0 1.4962,19.11749 1.4962,19.11749 0.1298,1.63321 0.22065,2.86304 0.27256,3.68985 0.0519,0.84841 0.0778,1.51173 0.0778,1.98975 -1e-5,1.21692 -0.13407,2.16064 -0.40234,2.83149 -0.26848,0.69307 -0.6412,1.03751 -1.11848,1.03299 -0.86068,-0.008 -1.61869,-0.97567 -2.27339,-2.90479 -0.64712,-1.91076 -1.09814,-4.52098 -1.35235,-7.83047 0,0 -1.42331,-18.15459 -1.42331,-18.15459 0,0 -4.77069,-0.23059 -4.77069,-0.23059 0,0 2.90424,37.06604 2.90424,37.06604 0,0 4.74694,-0.006 4.74694,-0.006 0,0 -0.43261,-5.37511 -0.43261,-5.37511 0.73383,2.07828 1.51412,3.64008 2.34057,4.68664 0.82459,1.04414 1.68195,1.56429 2.57185,1.56217 0.99962,-0.002 1.85491,-0.65408 2.56685,-1.95303 0.71054,-1.27491 1.13792,-2.92632 1.28313,-4.95548"
             style="font-family:Sans;-inkscape-font-specification:Sans Bold Italic"
             id="path3342" />
          <path
             inkscape:connector-curvature="0"
             d="m -117.38935,921.21284 c -1.12751,-0.0101 -2.05896,-1.34705 -2.79281,-4.01495 -0.73537,-2.67356 -1.10362,-6.07406 -1.10361,-10.19709 -1e-5,-2.24141 0.19644,-3.94729 0.58902,-5.11698 0.40029,-1.147 0.97953,-1.70565 1.73685,-1.67665 1.12889,0.0432 2.05614,1.40287 2.7833,4.07465 0.72566,2.68699 1.08794,6.0829 1.08795,10.19153 -1e-5,2.20079 -0.19721,3.87508 -0.59192,5.02395 -0.3871,1.15007 -0.9564,1.72222 -1.70878,1.71554 m 0.35213,8.07449 c 2.01694,-0.005 3.59428,-1.33668 4.73778,-3.98895 1.13979,-2.64379 1.70832,-6.24326 1.70833,-10.80489 -1e-5,-2.64505 -0.17882,-5.22218 -0.53669,-7.73271 -0.35827,-2.49252 -0.88038,-4.78469 -1.56705,-6.87765 -0.81618,-2.49979 -1.7828,-4.40499 -2.9011,-5.71406 -1.12184,-1.31349 -2.37699,-2.00588 -3.76684,-2.07484 -2.01715,-0.10008 -3.6177,1.16623 -4.79598,3.80614 -1.17387,2.64891 -1.76225,6.30679 -1.76225,10.96744 0,2.6815 0.19071,5.30298 0.57182,7.863 0.3807,2.57826 0.92623,4.93273 1.63583,7.06214 0.82336,2.46485 1.8007,4.33168 2.93078,5.60176 1.13465,1.26601 2.38351,1.89588 3.74537,1.89262"
             style="font-family:Sans;-inkscape-font-specification:Sans Bold Italic"
             id="path3344" />
          <path
             inkscape:connector-curvature="0"
             d="m -95.318708,915.02089 c 0,0 -1.520559,-20.92082 -1.520559,-20.92082 0,0 -4.137983,-0.2 -4.137983,-0.2 0,0 1.307811,18.02726 1.307811,18.02726 0.09239,1.1708 0.161676,2.15646 0.20787,2.95686 0.05386,0.82091 0.08079,1.46716 0.08081,1.93856 -1.2e-5,1.31177 -0.138546,2.32483 -0.415769,3.03938 -0.269752,0.71514 -0.655472,1.07053 -1.157522,1.06577 -0.85906,-0.008 -1.59986,-0.91102 -2.22162,-2.71074 -0.61509,-1.78239 -1.04396,-4.25571 -1.28591,-7.41982 0,0 -1.26714,-17.12692 -1.26714,-17.12692 0,0 -4.24523,-0.20518 -4.24523,-0.20518 0,0 2.58399,34.95906 2.58399,34.95906 0,0 4.22596,-0.005 4.22596,-0.005 0,0 -0.38526,-5.07235 -0.38526,-5.07235 0.77009,2.00269 1.54237,3.48658 2.31683,4.45341 0.77272,0.96463 1.578386,1.44516 2.416779,1.44317 1.188704,-0.003 2.10239,-0.83211 2.743221,-2.48532 0.639618,-1.6502 0.958989,-3.97153 0.959005,-6.96626 -1.6e-5,-0.65195 -0.01902,-1.37539 -0.05701,-2.17046 -0.03043,-0.79505 -0.07984,-1.66202 -0.148269,-2.60045"
             style="font-family:Sans;-inkscape-font-specification:Sans Bold Italic"
             id="path3346" />
          <path
             inkscape:connector-curvature="0"
             d="m -86.424562,937.99422 c 0,0 -0.678743,-9.59462 -0.678743,-9.59462 0,0 4.052312,-0.005 4.052312,-0.005 0,0 -0.561779,-7.69208 -0.561779,-7.69208 0,0 -4.059044,-0.041 -4.059044,-0.041 0,0 -1.027948,-14.36064 -1.027948,-14.36064 -0.02985,-0.32391 -0.05223,-0.59719 -0.06715,-0.81982 -0.0075,-0.22156 -0.0112,-0.43431 -0.0112,-0.63602 -6e-6,-0.92869 0.111904,-1.5909 0.335617,-1.98645 0.231005,-0.39501 0.614437,-0.58236 1.149784,-0.56255 0,0 2.055468,0.0761 2.055468,0.0761 0,0 -0.565406,-7.73864 -0.565406,-7.73864 0,0 -3.356226,-0.16221 -3.356226,-0.16221 -1.212306,-0.0586 -2.139385,0.58548 -2.77891,1.93428 -0.640722,1.35102 -0.96153,3.32744 -0.961529,5.92652 -10e-7,0.56874 0.01133,1.17847 0.03398,1.82886 0.02265,0.65062 0.05663,1.31172 0.101924,1.98296 0,0 1.040183,14.47669 1.040183,14.47669 0,0 -1.99267,-0.0201 -1.99267,-0.0201 0,0 0.555937,7.80652 0.555937,7.80652 0,0 2.012003,-0.002 2.012003,-0.002 0,0 0.698052,9.65124 0.698052,9.65124 0,0 4.02533,-0.0615 4.02533,-0.0615"
             style="font-style:italic;font-variant:normal;font-stretch:normal;letter-spacing:-0.93131942px;fill:#3ede73;font-family:Sans;-inkscape-font-specification:Sans Bold Italic"
             id="path3348" />
          <path
             inkscape:connector-curvature="0"
             d="m -73.236284,919.35749 c -0.263806,0.41119 -0.556362,0.72367 -0.877743,0.93739 -0.321709,0.214 -0.668777,0.31896 -1.041283,0.31513 -0.983427,-0.0102 -1.803944,-0.89159 -2.460351,-2.64661 -0.65047,-1.75841 -1.092054,-4.29149 -1.32393,-7.59895 0,0 -1.110895,-15.45293 -1.110895,-15.45293 0,0 -3.939189,-0.19039 -3.939189,-0.19039 0,0 2.3975,33.67175 2.3975,33.67175 0,0 3.922356,-0.005 3.922356,-0.005 0,0 -0.422726,-5.72218 -0.422726,-5.72218 0.512976,2.10838 1.151306,3.71778 1.914276,4.82873 0.768399,1.12818 1.617337,1.69018 2.546213,1.68797 0.13553,-3.6e-4 0.288834,-0.0199 0.459898,-0.0602 0.170957,-0.0398 0.373863,-0.0994 0.608668,-0.17865 0,0 -0.672794,-9.58607 -0.672794,-9.58607"
             style="font-style:italic;font-variant:normal;font-stretch:normal;letter-spacing:-0.93131942px;fill:#3ede73;font-family:Sans;-inkscape-font-specification:Sans Bold Italic"
             id="path3350" />
          <path
             inkscape:connector-curvature="0"
             d="m -61.052895,910.8787 c 0,0 -0.123667,-1.65953 -0.123667,-1.65953 0,0 -8.753327,-0.24454 -8.753327,-0.24454 -9e-6,-0.11715 -0.0039,-0.29462 -0.01058,-0.53019 -0.0069,-0.21542 -0.01058,-0.38308 -0.01058,-0.50105 0,-2.13948 0.229267,-3.73148 0.687337,-4.77437 0.464466,-1.04119 1.15645,-1.54313 2.074527,-1.50724 0.78988,0.0309 1.619665,0.39485 2.489069,1.09061 0.874033,0.69418 1.787207,1.70825 2.739206,3.04121 0,0 -0.568791,-8.11333 -0.568791,-8.11333 -0.905206,-0.97425 -1.809429,-1.70762 -2.71265,-2.19911 -0.898737,-0.51199 -1.817396,-0.79188 -2.756145,-0.83846 -1.843192,-0.0915 -3.274816,1.02745 -4.289514,3.36267 -1.010658,2.34235 -1.517135,5.69793 -1.517135,10.0614 0,2.52728 0.160586,4.97912 0.481526,7.35355 0.32776,2.39196 0.801007,4.57653 1.419143,6.55234 0.730334,2.36606 1.600392,4.15759 2.609076,5.37567 1.012648,1.21434 2.1307,1.81867 3.353086,1.81575 1.578898,-0.004 2.825541,-1.18228 3.74367,-3.53044 0.922413,-2.34163 1.38266,-5.49446 1.382679,-9.46356 -1.9e-5,-0.7744 -0.02058,-1.59757 -0.06184,-2.4696 -0.03431,-0.8529 -0.09273,-1.79328 -0.175128,-2.82179 m -3.501404,4.70088 c 0.02081,0.25439 0.03469,0.50675 0.04162,0.76006 0.01387,0.27287 0.02081,0.5359 0.02081,0.78881 -9e-6,1.55747 -0.166652,2.79198 -0.50017,3.70389 -0.333884,0.91278 -0.786542,1.36723 -1.358462,1.36261 -0.733801,-0.006 -1.360558,-0.57845 -1.879661,-1.71869 -0.512899,-1.12239 -0.906877,-2.78399 -1.181538,-4.98489 0,0 4.857349,0.0882 4.857349,0.0882"
             style="font-style:italic;font-variant:normal;font-stretch:normal;letter-spacing:-0.93131942px;fill:#3ede73;font-family:Sans;-inkscape-font-specification:Sans Bold Italic"
             id="path3352" />
          <path
             inkscape:connector-curvature="0"
             d="m -47.907062,911.2128 c 0,0 -0.118775,-1.62623 -0.118775,-1.62623 0,0 -8.404061,-0.23479 -8.404061,-0.23479 0,-0.11477 -0.0038,-0.28863 -0.01015,-0.51942 -0.0066,-0.21105 -0.01015,-0.37531 -0.01015,-0.49088 -9e-6,-2.09609 0.220052,-3.65595 0.659748,-4.67803 0.44584,-1.02044 1.110085,-1.51275 1.991418,-1.4783 0.758306,0.0296 1.55497,0.38564 2.389705,1.06673 0.839216,0.67959 1.716079,1.67263 2.630266,2.97822 0,0 -0.546205,-7.95018 -0.546205,-7.95018 -0.869233,-0.95387 -1.737465,-1.67166 -2.604679,-2.15239 -0.862868,-0.5008 -1.744826,-0.77415 -2.646009,-0.81886 -1.769284,-0.0878 -3.143366,1.00979 -4.117198,3.29844 -0.969913,2.2955 -1.455944,5.58303 -1.455944,9.85749 0,2.47572 0.154102,4.87747 0.462097,7.20336 0.314526,2.3431 0.7687,4.48305 1.361932,6.41853 0.700927,2.31786 1.536005,4.07295 2.504191,5.2663 0.972051,1.18975 2.04535,1.78191 3.218899,1.7791 1.515936,-0.004 2.712969,-1.15839 3.59461,-3.45945 0.885824,-2.2948 1.327828,-5.38459 1.327837,-9.27426 -9e-6,-0.7589 -0.01976,-1.56559 -0.05938,-2.42015 -0.03295,-0.83582 -0.08905,-1.75735 -0.168179,-2.76523 m -3.362258,4.60802 c 0.01998,0.24926 0.0333,0.49654 0.03997,0.74475 0.01332,0.26738 0.01998,0.52512 0.01998,0.77294 -9e-6,1.52613 -0.160012,2.73584 -0.480246,3.62946 -0.320569,0.89446 -0.755157,1.33982 -1.304239,1.33539 -0.704481,-0.006 -1.306153,-0.56654 -1.80447,-1.68362 -0.492346,-1.09955 -0.870535,-2.72739 -1.134168,-4.8836 0,0 4.663131,0.0847 4.663131,0.0847"
             style="font-style:italic;font-variant:normal;font-stretch:normal;letter-spacing:-0.93131942px;fill:#3ede73;font-family:Sans;-inkscape-font-specification:Sans Bold Italic"
             id="path3354" />
        </g>
        <path
           id="path3581"
           style="font-size:22.13486671px;font-style:normal;font-weight:bold;line-height:125%;letter-spacing:-2.04736328px;word-spacing:0px;fill:#008080;fill-opacity:1;stroke:none;font-family:Sans;-inkscape-font-specification:Apple LiGothic Bold Italic"
           d="m 84.58481,-526.63322 c 0,0 21.69349,0.6022 21.69349,0.6022 0,0 -14.557865,69.89786 -14.557865,69.89786 0,0 37.583675,0.17553 37.583675,0.17553 0,0 -3.36953,16.8036 -3.36953,16.8036 0,0 -59.719228,0.0544 -59.719228,0.0544 0,0 18.369455,-87.53373 18.369455,-87.53373"
           inkscape:connector-curvature="0" />
        <path
           id="path3583"
           style="font-size:22.13486671px;font-style:normal;font-weight:bold;line-height:125%;letter-spacing:0px;word-spacing:0px;fill:#008080;fill-opacity:1;stroke:none;font-family:Sans;-inkscape-font-specification:Sans Bold Italic"
           d="m 196.52488,-468.45833 c 0,0 -0.69642,3.21277 -0.69642,3.21277 0,0 -44.80845,-0.35563 -44.80845,-0.35563 -0.005,0.22816 -0.0311,0.57313 -0.0749,1.03111 -0.0438,0.41875 -0.0691,0.74477 -0.0737,0.97442 -0.0836,4.16503 1.02981,7.28557 3.33743,9.35814 2.34004,2.06946 5.86639,3.10997 10.57071,3.12456 4.04594,0.012 8.30783,-0.61912 12.78373,-1.89205 4.49788,-1.26899 9.20666,-3.15566 14.12445,-5.65768 0,0 -3.22332,15.71621 -3.22332,15.71621 -4.66576,1.81243 -9.31887,3.15727 -13.95926,4.03229 -4.62001,0.91566 -9.33481,1.37834 -14.14527,1.38539 -9.45078,0.0149 -16.74997,-2.29247 -21.86588,-6.93174 -5.09714,-4.65479 -7.56702,-11.23904 -7.39646,-19.74063 0.0988,-4.92403 1.01937,-9.68551 2.76032,-14.28014 1.7764,-4.62749 4.29131,-8.83581 7.5411,-12.62213 3.83975,-4.53384 8.37244,-7.9334 13.59166,-10.2012 5.23711,-2.2591 10.98798,-3.31951 17.24645,-3.18747 8.07884,0.17074 14.40795,2.59009 19.0093,7.24805 4.62174,4.64387 6.84975,10.81592 6.69508,18.5276 -0.0302,1.50458 -0.16746,3.10195 -0.41181,4.79228 -0.20869,1.65382 -0.54347,3.47533 -1.00449,5.46585 m -17.71533,-9.47547 c 0.11629,-0.49264 0.19717,-0.98199 0.24278,-1.47385 0.0817,-0.52926 0.12726,-1.04002 0.13713,-1.53179 0.0607,-3.02845 -0.74364,-5.44546 -2.41444,-7.25199 -1.67283,-1.8085 -3.97171,-2.7378 -6.89953,-2.78624 -3.75756,-0.0619 -6.99008,0.9888 -9.69403,3.15568 -2.67206,2.13324 -4.75624,5.32821 -6.25009,9.58516 0,0 24.87804,0.303 24.87804,0.303"
           inkscape:connector-curvature="0" />
        <path
           id="path3585"
           style="font-size:22.13486671px;font-style:normal;font-weight:bold;line-height:125%;letter-spacing:0px;word-spacing:0px;fill:#008080;fill-opacity:1;stroke:none;font-family:Sans;-inkscape-font-specification:Sans Bold Italic"
           d="m 263.75773,-490.80463 c 2.85497,-3.73709 6.05397,-6.57895 9.59465,-8.52743 3.56515,-1.94295 7.23392,-2.87275 11.00545,-2.79318 4.9472,0.10436 8.7967,1.69715 11.55729,4.77371 2.78836,3.03485 4.12806,7.1645 4.02323,12.39356 -0.0218,1.08945 -0.12864,2.34112 -0.32033,3.7551 -0.15839,1.37824 -0.40284,2.95518 -0.73255,4.73154 0,0 -7.28549,37.16626 -7.28549,37.16626 0,0 -17.90411,0.0149 -17.90411,0.0149 0,0 6.27114,-32.0365 6.27114,-32.0365 0,0 0.16566,-0.82105 0.16566,-0.82105 0.95197,-4.52358 1.44062,-7.42369 1.46636,-8.7029 0.0402,-2.01013 -0.4575,-3.6078 -1.49386,-4.79377 -1.00412,-1.18631 -2.40226,-1.79401 -4.19557,-1.82262 -3.42702,-0.055 -6.37606,1.45889 -8.84398,4.54412 -2.43797,3.05446 -4.23603,7.46433 -5.3918,13.22995 0,0 -6.05817,30.41925 -6.05817,30.41925 0,0 -18.36125,0.0179 -18.36125,0.0179 0,0 6.52526,-32.44242 6.52526,-32.44242 0.56523,-2.77141 0.9638,-4.85885 1.19578,-6.26296 0.23267,-1.44088 0.35699,-2.56861 0.37333,-3.38275 0.0415,-2.0726 -0.45235,-3.69048 -1.48229,-4.85415 -1.03,-1.20155 -2.48102,-1.81754 -4.35432,-1.84744 -3.37812,-0.0541 -6.38609,1.53428 -9.02147,4.76833 -2.60499,3.20341 -4.46427,7.61351 -5.57503,13.2301 0,0 -6.2063,30.80819 -6.2063,30.80819 0,0 -18.73107,0.0179 -18.73107,0.0179 0,0 12.6646,-62.90085 12.6646,-62.90085 0,0 18.62977,0.38397 18.62977,0.38397 0,0 -1.8815,9.12063 -1.8815,9.12063 2.95103,-3.48185 6.06674,-6.08043 9.34601,-7.79782 3.27189,-1.71342 6.65448,-2.53181 10.14694,-2.45813 3.92307,0.0822 7.25748,1.26007 10.00719,3.52844 2.74505,2.22734 4.36593,5.0736 4.86649,8.54104"
           inkscape:connector-curvature="0" />
        <path
           id="path3587"
           style="font-size:22.13486671px;font-style:normal;font-weight:bold;line-height:125%;letter-spacing:0px;word-spacing:0px;fill:#008080;fill-opacity:1;stroke:none;font-family:Sans;-inkscape-font-specification:Sans Bold Italic"
           d="m 338.80653,-487.21641 c -4.42541,-0.0715 -8.1267,2.13213 -11.09794,6.61821 -2.97741,4.49563 -4.53885,10.25823 -4.67969,17.28042 -0.0766,3.81751 0.63607,6.73837 2.13683,8.76145 1.5318,1.98504 3.78602,2.98213 6.75921,2.99235 4.43195,0.015 8.11753,-2.2274 11.06264,-6.72063 2.93976,-4.51924 4.47762,-10.27452 4.61804,-17.27219 0.0751,-3.74831 -0.64155,-6.61541 -2.15139,-8.60321 -1.47994,-1.98923 -3.69466,-3.00853 -6.6477,-3.0564 m 1.65786,-13.72444 c 7.91558,0.16745 14.06056,2.55958 18.45775,7.16686 4.38289,4.59256 6.49119,10.76781 6.33534,18.53702 -0.0903,4.50495 -0.88022,8.88016 -2.37051,13.1278 -1.49125,4.21697 -3.61866,8.0798 -6.3851,11.59039 -3.28863,4.19328 -7.14737,7.36203 -11.581,9.50356 -4.44769,2.14876 -9.39734,3.22918 -14.85434,3.23719 -7.91999,0.012 -14.15828,-2.27112 -18.69239,-6.8601 -4.51649,-4.60395 -6.70068,-10.88024 -6.54142,-18.81809 0.0916,-4.56703 0.92966,-9.01684 2.51285,-13.34696 1.58221,-4.36124 3.80366,-8.32831 6.66134,-11.89919 3.3156,-4.1332 7.21509,-7.23578 11.69363,-9.30993 4.49634,-2.06689 9.41918,-3.04134 14.76385,-2.92855"
           inkscape:connector-curvature="0" />
        <path
           id="path3589"
           style="font-size:22.13486671px;font-style:normal;font-weight:bold;line-height:125%;letter-spacing:0px;word-spacing:0px;fill:#008080;fill-opacity:1;stroke:none;font-family:Sans;-inkscape-font-specification:Sans Bold Italic"
           d="m 425.21403,-474.93272 c 0,0 -6.68248,35.51187 -6.68248,35.51187 0,0 -16.24688,0.0149 -16.24688,0.0149 0,0 5.74863,-30.6004 5.74863,-30.6004 0.40261,-1.98678 0.7082,-3.66006 0.91686,-5.01965 0.23952,-1.39388 0.3672,-2.49243 0.38337,-3.2953 0.0449,-2.23416 -0.46428,-3.97048 -1.52787,-5.20932 -1.03422,-1.23923 -2.5359,-1.87489 -4.50642,-1.90631 -3.37178,-0.0541 -6.30998,1.42564 -8.81165,4.44191 -2.47493,2.98728 -4.24259,7.16597 -5.30025,12.53593 0,0 -5.55828,29.07016 -5.55828,29.07016 0,0 -16.66797,0.0149 -16.66797,0.0149 0,0 11.33574,-59.33754 11.33574,-59.33754 0,0 16.58514,0.34127 16.58514,0.34127 0,0 -1.68531,8.6087 -1.68531,8.6087 3.09074,-3.35028 6.17235,-5.81678 9.24487,-7.40245 3.06559,-1.58209 6.24397,-2.33709 9.53427,-2.26768 4.66513,0.0987 8.22267,1.58277 10.68122,4.44891 2.45385,2.86091 3.62795,6.83967 3.52568,11.94018 -0.0209,1.11038 -0.1217,2.34103 -0.29782,3.69216 -0.14652,1.35172 -0.37013,2.82442 -0.67076,4.41733"
           inkscape:connector-curvature="0" />
      </g>
      <g
         id="g3717"
         transform="translate(-0.90782799,173.79497)">
        <g
           id="g3719"
           style="font-size:22.13486671px;font-style:normal;font-weight:bold;line-height:125%;letter-spacing:0px;word-spacing:0px;fill:#3ede73;fill-opacity:1;stroke:none;font-family:Sans;-inkscape-font-specification:Apple LiGothic Bold Italic"
           transform="matrix(3.9246289,0.07873755,0.03416953,-1.7031636,768.03884,1091.0026)">
          <path
             id="path3721"
             style="letter-spacing:-2.04736328px"
             d="m -182.34069,941.35343 c 0,0 5.52838,-0.098 5.52838,-0.098 0,0 -3.3507,-41.19492 -3.3507,-41.19492 0,0 9.57341,0.33945 9.57341,0.33945 0,0 -0.77235,-9.90182 -0.77235,-9.90182 0,0 -15.21013,-0.73515 -15.21013,-0.73515 0,0 4.23139,51.5904 4.23139,51.5904"
             inkscape:connector-curvature="0" />
          <path
             id="path3723"
             style="font-family:Sans;-inkscape-font-specification:Sans Bold Italic"
             d="m -153.53244,908.52828 c 0,0 -0.16096,-1.8938 -0.16096,-1.8938 0,0 -11.41447,-0.31889 -11.41447,-0.31889 0,-0.1339 -0.005,-0.33674 -0.0138,-0.60605 -0.009,-0.24628 -0.0138,-0.43792 -0.0138,-0.57276 -1e-5,-2.44546 0.29952,-4.26382 0.89786,-5.45305 0.60658,-1.18702 1.51005,-1.75619 2.70831,-1.70935 1.03056,0.0403 2.11283,0.46118 3.24633,1.26098 1.13912,0.79774 2.3288,1.96047 3.56857,3.48684 0,0 -0.74067,-9.26191 -0.74067,-9.26191 -1.1791,-1.11866 -2.35737,-1.96274 -3.5348,-2.53093 -1.17203,-0.59181 -2.37052,-0.91887 -3.5957,-0.97966 -2.40703,-0.11943 -4.27791,1.14824 -5.60463,3.81081 -1.32202,2.67192 -1.98474,6.50718 -1.98474,11.49882 0,2.89111 0.21014,5.69649 0.63008,8.41361 0.4288,2.73681 1.04784,5.23632 1.85621,7.4968 0.95481,2.70615 2.09191,4.75474 3.40965,6.14719 1.32234,1.38755 2.78166,2.07762 4.37636,2.07381 2.05854,-0.005 3.68292,-1.35048 4.87868,-4.03009 1.20088,-2.6711 1.79989,-6.26728 1.7999,-10.79513 -1e-5,-0.88341 -0.0268,-1.82253 -0.0804,-2.81747 -0.0447,-0.9731 -0.12066,-2.0461 -0.22791,-3.21977 m -4.56049,5.35263 c 0.0271,0.29049 0.0452,0.57864 0.0543,0.86786 0.0181,0.31158 0.0271,0.61189 0.0271,0.90063 -1e-5,1.77813 -0.21723,3.18722 -0.65201,4.22781 -0.43531,1.04173 -1.02558,1.56006 -1.77154,1.55403 -0.95736,-0.008 -1.77531,-0.66265 -2.45293,-1.96624 -0.66967,-1.28347 -1.18418,-3.18316 -1.54291,-5.69919 0,0 6.33795,0.1151 6.33795,0.1151"
             inkscape:connector-curvature="0" />
          <path
             id="path3725"
             style="font-family:Sans;-inkscape-font-specification:Sans Bold Italic"
             d="m -136.52251,922.43511 c 0.70806,2.22694 1.50832,3.93251 2.40017,5.11779 0.89811,1.18229 1.82779,1.77121 2.7888,1.76892 1.26058,-0.003 2.24918,-0.89249 2.96802,-2.66565 0.7257,-1.74833 1.08802,-4.15627 1.08804,-7.22648 -2e-5,-0.63967 -0.0208,-1.37554 -0.0624,-2.20766 -0.0333,-0.81077 -0.0875,-1.73917 -0.1624,-2.7856 0,0 -1.66569,-21.8989 -1.66569,-21.8989 0,0 -4.56007,-0.2204 -4.56007,-0.2204 0,0 1.43355,18.87627 1.43355,18.87627 0,0 0.038,0.48383 0.038,0.48383 0.21935,2.66612 0.32899,4.37398 0.32901,5.12505 -2e-5,1.18023 -0.13496,2.11205 -0.40498,2.79591 -0.26181,0.68443 -0.62102,1.02463 -1.07792,1.02031 -0.87314,-0.008 -1.61652,-0.93131 -2.22933,-2.77111 -0.60534,-1.82139 -1.04077,-4.43074 -1.30568,-7.82823 0,0 -1.38757,-17.9246 -1.38757,-17.9246 0,0 -4.6765,-0.22603 -4.6765,-0.22603 0,0 1.4962,19.11749 1.4962,19.11749 0.1298,1.63321 0.22065,2.86304 0.27256,3.68985 0.0519,0.84841 0.0778,1.51173 0.0778,1.98975 -1e-5,1.21692 -0.13407,2.16064 -0.40234,2.83149 -0.26848,0.69307 -0.6412,1.03751 -1.11848,1.03299 -0.86068,-0.008 -1.61869,-0.97567 -2.27339,-2.90479 -0.64712,-1.91076 -1.09814,-4.52098 -1.35235,-7.83047 0,0 -1.42331,-18.15459 -1.42331,-18.15459 0,0 -4.77069,-0.23059 -4.77069,-0.23059 0,0 2.90424,37.06604 2.90424,37.06604 0,0 4.74694,-0.006 4.74694,-0.006 0,0 -0.43261,-5.37511 -0.43261,-5.37511 0.73383,2.07828 1.51412,3.64008 2.34057,4.68664 0.82459,1.04414 1.68195,1.56429 2.57185,1.56217 0.99962,-0.002 1.85491,-0.65408 2.56685,-1.95303 0.71054,-1.27491 1.13792,-2.92632 1.28313,-4.95548"
             inkscape:connector-curvature="0" />
          <path
             id="path3727"
             style="font-family:Sans;-inkscape-font-specification:Sans Bold Italic"
             d="m -117.38935,921.21284 c -1.12751,-0.0101 -2.05896,-1.34705 -2.79281,-4.01495 -0.73537,-2.67356 -1.10362,-6.07406 -1.10361,-10.19709 -1e-5,-2.24141 0.19644,-3.94729 0.58902,-5.11698 0.40029,-1.147 0.97953,-1.70565 1.73685,-1.67665 1.12889,0.0432 2.05614,1.40287 2.7833,4.07465 0.72566,2.68699 1.08794,6.0829 1.08795,10.19153 -1e-5,2.20079 -0.19721,3.87508 -0.59192,5.02395 -0.3871,1.15007 -0.9564,1.72222 -1.70878,1.71554 m 0.35213,8.07449 c 2.01694,-0.005 3.59428,-1.33668 4.73778,-3.98895 1.13979,-2.64379 1.70832,-6.24326 1.70833,-10.80489 -1e-5,-2.64505 -0.17882,-5.22218 -0.53669,-7.73271 -0.35827,-2.49252 -0.88038,-4.78469 -1.56705,-6.87765 -0.81618,-2.49979 -1.7828,-4.40499 -2.9011,-5.71406 -1.12184,-1.31349 -2.37699,-2.00588 -3.76684,-2.07484 -2.01715,-0.10008 -3.6177,1.16623 -4.79598,3.80614 -1.17387,2.64891 -1.76225,6.30679 -1.76225,10.96744 0,2.6815 0.19071,5.30298 0.57182,7.863 0.3807,2.57826 0.92623,4.93273 1.63583,7.06214 0.82336,2.46485 1.8007,4.33168 2.93078,5.60176 1.13465,1.26601 2.38351,1.89588 3.74537,1.89262"
             inkscape:connector-curvature="0" />
          <path
             id="path3729"
             style="font-family:Sans;-inkscape-font-specification:Sans Bold Italic"
             d="m -95.318708,915.02089 c 0,0 -1.520559,-20.92082 -1.520559,-20.92082 0,0 -4.137983,-0.2 -4.137983,-0.2 0,0 1.307811,18.02726 1.307811,18.02726 0.09239,1.1708 0.161676,2.15646 0.20787,2.95686 0.05386,0.82091 0.08079,1.46716 0.08081,1.93856 -1.2e-5,1.31177 -0.138546,2.32483 -0.415769,3.03938 -0.269752,0.71514 -0.655472,1.07053 -1.157522,1.06577 -0.85906,-0.008 -1.59986,-0.91102 -2.22162,-2.71074 -0.61509,-1.78239 -1.04396,-4.25571 -1.28591,-7.41982 0,0 -1.26714,-17.12692 -1.26714,-17.12692 0,0 -4.24523,-0.20518 -4.24523,-0.20518 0,0 2.58399,34.95906 2.58399,34.95906 0,0 4.22596,-0.005 4.22596,-0.005 0,0 -0.38526,-5.07235 -0.38526,-5.07235 0.77009,2.00269 1.54237,3.48658 2.31683,4.45341 0.77272,0.96463 1.578386,1.44516 2.416779,1.44317 1.188704,-0.003 2.10239,-0.83211 2.743221,-2.48532 0.639618,-1.6502 0.958989,-3.97153 0.959005,-6.96626 -1.6e-5,-0.65195 -0.01902,-1.37539 -0.05701,-2.17046 -0.03043,-0.79505 -0.07984,-1.66202 -0.148269,-2.60045"
             inkscape:connector-curvature="0" />
          <path
             id="path3731"
             style="font-style:italic;font-variant:normal;font-stretch:normal;letter-spacing:-0.93131942px;fill:#3ede73;font-family:Sans;-inkscape-font-specification:Sans Bold Italic"
             d="m -86.424562,937.99422 c 0,0 -0.678743,-9.59462 -0.678743,-9.59462 0,0 4.052312,-0.005 4.052312,-0.005 0,0 -0.561779,-7.69208 -0.561779,-7.69208 0,0 -4.059044,-0.041 -4.059044,-0.041 0,0 -1.027948,-14.36064 -1.027948,-14.36064 -0.02985,-0.32391 -0.05223,-0.59719 -0.06715,-0.81982 -0.0075,-0.22156 -0.0112,-0.43431 -0.0112,-0.63602 -6e-6,-0.92869 0.111904,-1.5909 0.335617,-1.98645 0.231005,-0.39501 0.614437,-0.58236 1.149784,-0.56255 0,0 2.055468,0.0761 2.055468,0.0761 0,0 -0.565406,-7.73864 -0.565406,-7.73864 0,0 -3.356226,-0.16221 -3.356226,-0.16221 -1.212306,-0.0586 -2.139385,0.58548 -2.77891,1.93428 -0.640722,1.35102 -0.96153,3.32744 -0.961529,5.92652 -10e-7,0.56874 0.01133,1.17847 0.03398,1.82886 0.02265,0.65062 0.05663,1.31172 0.101924,1.98296 0,0 1.040183,14.47669 1.040183,14.47669 0,0 -1.99267,-0.0201 -1.99267,-0.0201 0,0 0.555937,7.80652 0.555937,7.80652 0,0 2.012003,-0.002 2.012003,-0.002 0,0 0.698052,9.65124 0.698052,9.65124 0,0 4.02533,-0.0615 4.02533,-0.0615"
             inkscape:connector-curvature="0" />
          <path
             id="path3733"
             style="font-style:italic;font-variant:normal;font-stretch:normal;letter-spacing:-0.93131942px;fill:#3ede73;font-family:Sans;-inkscape-font-specification:Sans Bold Italic"
             d="m -73.236284,919.35749 c -0.263806,0.41119 -0.556362,0.72367 -0.877743,0.93739 -0.321709,0.214 -0.668777,0.31896 -1.041283,0.31513 -0.983427,-0.0102 -1.803944,-0.89159 -2.460351,-2.64661 -0.65047,-1.75841 -1.092054,-4.29149 -1.32393,-7.59895 0,0 -1.110895,-15.45293 -1.110895,-15.45293 0,0 -3.939189,-0.19039 -3.939189,-0.19039 0,0 2.3975,33.67175 2.3975,33.67175 0,0 3.922356,-0.005 3.922356,-0.005 0,0 -0.422726,-5.72218 -0.422726,-5.72218 0.512976,2.10838 1.151306,3.71778 1.914276,4.82873 0.768399,1.12818 1.617337,1.69018 2.546213,1.68797 0.13553,-3.6e-4 0.288834,-0.0199 0.459898,-0.0602 0.170957,-0.0398 0.373863,-0.0994 0.608668,-0.17865 0,0 -0.672794,-9.58607 -0.672794,-9.58607"
             inkscape:connector-curvature="0" />
          <path
             id="path3735"
             style="font-style:italic;font-variant:normal;font-stretch:normal;letter-spacing:-0.93131942px;fill:#3ede73;font-family:Sans;-inkscape-font-specification:Sans Bold Italic"
             d="m -61.052895,910.8787 c 0,0 -0.123667,-1.65953 -0.123667,-1.65953 0,0 -8.753327,-0.24454 -8.753327,-0.24454 -9e-6,-0.11715 -0.0039,-0.29462 -0.01058,-0.53019 -0.0069,-0.21542 -0.01058,-0.38308 -0.01058,-0.50105 0,-2.13948 0.229267,-3.73148 0.687337,-4.77437 0.464466,-1.04119 1.15645,-1.54313 2.074527,-1.50724 0.78988,0.0309 1.619665,0.39485 2.489069,1.09061 0.874033,0.69418 1.787207,1.70825 2.739206,3.04121 0,0 -0.568791,-8.11333 -0.568791,-8.11333 -0.905206,-0.97425 -1.809429,-1.70762 -2.71265,-2.19911 -0.898737,-0.51199 -1.817396,-0.79188 -2.756145,-0.83846 -1.843192,-0.0915 -3.274816,1.02745 -4.289514,3.36267 -1.010658,2.34235 -1.517135,5.69793 -1.517135,10.0614 0,2.52728 0.160586,4.97912 0.481526,7.35355 0.32776,2.39196 0.801007,4.57653 1.419143,6.55234 0.730334,2.36606 1.600392,4.15759 2.609076,5.37567 1.012648,1.21434 2.1307,1.81867 3.353086,1.81575 1.578898,-0.004 2.825541,-1.18228 3.74367,-3.53044 0.922413,-2.34163 1.38266,-5.49446 1.382679,-9.46356 -1.9e-5,-0.7744 -0.02058,-1.59757 -0.06184,-2.4696 -0.03431,-0.8529 -0.09273,-1.79328 -0.175128,-2.82179 m -3.501404,4.70088 c 0.02081,0.25439 0.03469,0.50675 0.04162,0.76006 0.01387,0.27287 0.02081,0.5359 0.02081,0.78881 -9e-6,1.55747 -0.166652,2.79198 -0.50017,3.70389 -0.333884,0.91278 -0.786542,1.36723 -1.358462,1.36261 -0.733801,-0.006 -1.360558,-0.57845 -1.879661,-1.71869 -0.512899,-1.12239 -0.906877,-2.78399 -1.181538,-4.98489 0,0 4.857349,0.0882 4.857349,0.0882"
             inkscape:connector-curvature="0" />
          <path
             id="path3737"
             style="font-style:italic;font-variant:normal;font-stretch:normal;letter-spacing:-0.93131942px;fill:#3ede73;font-family:Sans;-inkscape-font-specification:Sans Bold Italic"
             d="m -47.907062,911.2128 c 0,0 -0.118775,-1.62623 -0.118775,-1.62623 0,0 -8.404061,-0.23479 -8.404061,-0.23479 0,-0.11477 -0.0038,-0.28863 -0.01015,-0.51942 -0.0066,-0.21105 -0.01015,-0.37531 -0.01015,-0.49088 -9e-6,-2.09609 0.220052,-3.65595 0.659748,-4.67803 0.44584,-1.02044 1.110085,-1.51275 1.991418,-1.4783 0.758306,0.0296 1.55497,0.38564 2.389705,1.06673 0.839216,0.67959 1.716079,1.67263 2.630266,2.97822 0,0 -0.546205,-7.95018 -0.546205,-7.95018 -0.869233,-0.95387 -1.737465,-1.67166 -2.604679,-2.15239 -0.862868,-0.5008 -1.744826,-0.77415 -2.646009,-0.81886 -1.769284,-0.0878 -3.143366,1.00979 -4.117198,3.29844 -0.969913,2.2955 -1.455944,5.58303 -1.455944,9.85749 0,2.47572 0.154102,4.87747 0.462097,7.20336 0.314526,2.3431 0.7687,4.48305 1.361932,6.41853 0.700927,2.31786 1.536005,4.07295 2.504191,5.2663 0.972051,1.18975 2.04535,1.78191 3.218899,1.7791 1.515936,-0.004 2.712969,-1.15839 3.59461,-3.45945 0.885824,-2.2948 1.327828,-5.38459 1.327837,-9.27426 -9e-6,-0.7589 -0.01976,-1.56559 -0.05938,-2.42015 -0.03295,-0.83582 -0.08905,-1.75735 -0.168179,-2.76523 m -3.362258,4.60802 c 0.01998,0.24926 0.0333,0.49654 0.03997,0.74475 0.01332,0.26738 0.01998,0.52512 0.01998,0.77294 -9e-6,1.52613 -0.160012,2.73584 -0.480246,3.62946 -0.320569,0.89446 -0.755157,1.33982 -1.304239,1.33539 -0.704481,-0.006 -1.306153,-0.56654 -1.80447,-1.68362 -0.492346,-1.09955 -0.870535,-2.72739 -1.134168,-4.8836 0,0 4.663131,0.0847 4.663131,0.0847"
             inkscape:connector-curvature="0" />
        </g>
        <path
           inkscape:connector-curvature="0"
           d="m 84.58481,-526.63322 c 0,0 21.69349,0.6022 21.69349,0.6022 0,0 -14.557865,69.89786 -14.557865,69.89786 0,0 37.583675,0.17553 37.583675,0.17553 0,0 -3.36953,16.8036 -3.36953,16.8036 0,0 -59.719228,0.0544 -59.719228,0.0544 0,0 18.369455,-87.53373 18.369455,-87.53373"
           style="font-size:22.13486671px;font-style:normal;font-weight:bold;line-height:125%;letter-spacing:-2.04736328px;word-spacing:0px;fill:#008080;fill-opacity:1;stroke:none;font-family:Sans;-inkscape-font-specification:Apple LiGothic Bold Italic"
           id="path3739" />
        <path
           inkscape:connector-curvature="0"
           d="m 196.52488,-468.45833 c 0,0 -0.69642,3.21277 -0.69642,3.21277 0,0 -44.80845,-0.35563 -44.80845,-0.35563 -0.005,0.22816 -0.0311,0.57313 -0.0749,1.03111 -0.0438,0.41875 -0.0691,0.74477 -0.0737,0.97442 -0.0836,4.16503 1.02981,7.28557 3.33743,9.35814 2.34004,2.06946 5.86639,3.10997 10.57071,3.12456 4.04594,0.012 8.30783,-0.61912 12.78373,-1.89205 4.49788,-1.26899 9.20666,-3.15566 14.12445,-5.65768 0,0 -3.22332,15.71621 -3.22332,15.71621 -4.66576,1.81243 -9.31887,3.15727 -13.95926,4.03229 -4.62001,0.91566 -9.33481,1.37834 -14.14527,1.38539 -9.45078,0.0149 -16.74997,-2.29247 -21.86588,-6.93174 -5.09714,-4.65479 -7.56702,-11.23904 -7.39646,-19.74063 0.0988,-4.92403 1.01937,-9.68551 2.76032,-14.28014 1.7764,-4.62749 4.29131,-8.83581 7.5411,-12.62213 3.83975,-4.53384 8.37244,-7.9334 13.59166,-10.2012 5.23711,-2.2591 10.98798,-3.31951 17.24645,-3.18747 8.07884,0.17074 14.40795,2.59009 19.0093,7.24805 4.62174,4.64387 6.84975,10.81592 6.69508,18.5276 -0.0302,1.50458 -0.16746,3.10195 -0.41181,4.79228 -0.20869,1.65382 -0.54347,3.47533 -1.00449,5.46585 m -17.71533,-9.47547 c 0.11629,-0.49264 0.19717,-0.98199 0.24278,-1.47385 0.0817,-0.52926 0.12726,-1.04002 0.13713,-1.53179 0.0607,-3.02845 -0.74364,-5.44546 -2.41444,-7.25199 -1.67283,-1.8085 -3.97171,-2.7378 -6.89953,-2.78624 -3.75756,-0.0619 -6.99008,0.9888 -9.69403,3.15568 -2.67206,2.13324 -4.75624,5.32821 -6.25009,9.58516 0,0 24.87804,0.303 24.87804,0.303"
           style="font-size:22.13486671px;font-style:normal;font-weight:bold;line-height:125%;letter-spacing:0px;word-spacing:0px;fill:#008080;fill-opacity:1;stroke:none;font-family:Sans;-inkscape-font-specification:Sans Bold Italic"
           id="path3741" />
        <path
           inkscape:connector-curvature="0"
           d="m 263.75773,-490.80463 c 2.85497,-3.73709 6.05397,-6.57895 9.59465,-8.52743 3.56515,-1.94295 7.23392,-2.87275 11.00545,-2.79318 4.9472,0.10436 8.7967,1.69715 11.55729,4.77371 2.78836,3.03485 4.12806,7.1645 4.02323,12.39356 -0.0218,1.08945 -0.12864,2.34112 -0.32033,3.7551 -0.15839,1.37824 -0.40284,2.95518 -0.73255,4.73154 0,0 -7.28549,37.16626 -7.28549,37.16626 0,0 -17.90411,0.0149 -17.90411,0.0149 0,0 6.27114,-32.0365 6.27114,-32.0365 0,0 0.16566,-0.82105 0.16566,-0.82105 0.95197,-4.52358 1.44062,-7.42369 1.46636,-8.7029 0.0402,-2.01013 -0.4575,-3.6078 -1.49386,-4.79377 -1.00412,-1.18631 -2.40226,-1.79401 -4.19557,-1.82262 -3.42702,-0.055 -6.37606,1.45889 -8.84398,4.54412 -2.43797,3.05446 -4.23603,7.46433 -5.3918,13.22995 0,0 -6.05817,30.41925 -6.05817,30.41925 0,0 -18.36125,0.0179 -18.36125,0.0179 0,0 6.52526,-32.44242 6.52526,-32.44242 0.56523,-2.77141 0.9638,-4.85885 1.19578,-6.26296 0.23267,-1.44088 0.35699,-2.56861 0.37333,-3.38275 0.0415,-2.0726 -0.45235,-3.69048 -1.48229,-4.85415 -1.03,-1.20155 -2.48102,-1.81754 -4.35432,-1.84744 -3.37812,-0.0541 -6.38609,1.53428 -9.02147,4.76833 -2.60499,3.20341 -4.46427,7.61351 -5.57503,13.2301 0,0 -6.2063,30.80819 -6.2063,30.80819 0,0 -18.73107,0.0179 -18.73107,0.0179 0,0 12.6646,-62.90085 12.6646,-62.90085 0,0 18.62977,0.38397 18.62977,0.38397 0,0 -1.8815,9.12063 -1.8815,9.12063 2.95103,-3.48185 6.06674,-6.08043 9.34601,-7.79782 3.27189,-1.71342 6.65448,-2.53181 10.14694,-2.45813 3.92307,0.0822 7.25748,1.26007 10.00719,3.52844 2.74505,2.22734 4.36593,5.0736 4.86649,8.54104"
           style="font-size:22.13486671px;font-style:normal;font-weight:bold;line-height:125%;letter-spacing:0px;word-spacing:0px;fill:#008080;fill-opacity:1;stroke:none;font-family:Sans;-inkscape-font-specification:Sans Bold Italic"
           id="path3743" />
        <path
           inkscape:connector-curvature="0"
           d="m 338.80653,-487.21641 c -4.42541,-0.0715 -8.1267,2.13213 -11.09794,6.61821 -2.97741,4.49563 -4.53885,10.25823 -4.67969,17.28042 -0.0766,3.81751 0.63607,6.73837 2.13683,8.76145 1.5318,1.98504 3.78602,2.98213 6.75921,2.99235 4.43195,0.015 8.11753,-2.2274 11.06264,-6.72063 2.93976,-4.51924 4.47762,-10.27452 4.61804,-17.27219 0.0751,-3.74831 -0.64155,-6.61541 -2.15139,-8.60321 -1.47994,-1.98923 -3.69466,-3.00853 -6.6477,-3.0564 m 1.65786,-13.72444 c 7.91558,0.16745 14.06056,2.55958 18.45775,7.16686 4.38289,4.59256 6.49119,10.76781 6.33534,18.53702 -0.0903,4.50495 -0.88022,8.88016 -2.37051,13.1278 -1.49125,4.21697 -3.61866,8.0798 -6.3851,11.59039 -3.28863,4.19328 -7.14737,7.36203 -11.581,9.50356 -4.44769,2.14876 -9.39734,3.22918 -14.85434,3.23719 -7.91999,0.012 -14.15828,-2.27112 -18.69239,-6.8601 -4.51649,-4.60395 -6.70068,-10.88024 -6.54142,-18.81809 0.0916,-4.56703 0.92966,-9.01684 2.51285,-13.34696 1.58221,-4.36124 3.80366,-8.32831 6.66134,-11.89919 3.3156,-4.1332 7.21509,-7.23578 11.69363,-9.30993 4.49634,-2.06689 9.41918,-3.04134 14.76385,-2.92855"
           style="font-size:22.13486671px;font-style:normal;font-weight:bold;line-height:125%;letter-spacing:0px;word-spacing:0px;fill:#008080;fill-opacity:1;stroke:none;font-family:Sans;-inkscape-font-specification:Sans Bold Italic"
           id="path3745" />
        <path
           inkscape:connector-curvature="0"
           d="m 425.21403,-474.93272 c 0,0 -6.68248,35.51187 -6.68248,35.51187 0,0 -16.24688,0.0149 -16.24688,0.0149 0,0 5.74863,-30.6004 5.74863,-30.6004 0.40261,-1.98678 0.7082,-3.66006 0.91686,-5.01965 0.23952,-1.39388 0.3672,-2.49243 0.38337,-3.2953 0.0449,-2.23416 -0.46428,-3.97048 -1.52787,-5.20932 -1.03422,-1.23923 -2.5359,-1.87489 -4.50642,-1.90631 -3.37178,-0.0541 -6.30998,1.42564 -8.81165,4.44191 -2.47493,2.98728 -4.24259,7.16597 -5.30025,12.53593 0,0 -5.55828,29.07016 -5.55828,29.07016 0,0 -16.66797,0.0149 -16.66797,0.0149 0,0 11.33574,-59.33754 11.33574,-59.33754 0,0 16.58514,0.34127 16.58514,0.34127 0,0 -1.68531,8.6087 -1.68531,8.6087 3.09074,-3.35028 6.17235,-5.81678 9.24487,-7.40245 3.06559,-1.58209 6.24397,-2.33709 9.53427,-2.26768 4.66513,0.0987 8.22267,1.58277 10.68122,4.44891 2.45385,2.86091 3.62795,6.83967 3.52568,11.94018 -0.0209,1.11038 -0.1217,2.34103 -0.29782,3.69216 -0.14652,1.35172 -0.37013,2.82442 -0.67076,4.41733"
           style="font-size:22.13486671px;font-style:normal;font-weight:bold;line-height:125%;letter-spacing:0px;word-spacing:0px;fill:#008080;fill-opacity:1;stroke:none;font-family:Sans;-inkscape-font-specification:Sans Bold Italic"
           id="path3747" />
      </g>
      <path
         sodipodi:type="arc"
         style="fill:#008080;fill-opacity:1;stroke:none"
         id="path3749"
         sodipodi:cx="386.88843"
         sodipodi:cy="259.5582"
         sodipodi:rx="27.274118"
         sodipodi:ry="27.274118"
         d="m 414.16255,259.5582 a 27.274118,27.274118 0 1 1 -54.54824,0 27.274118,27.274118 0 1 1 54.54824,0 z"
         transform="matrix(1.5091951,0.00788337,-0.00788337,1.5091951,74.429822,-654.25734)" />
      <text
         xml:space="preserve"
         style="font-size:41.04760361px;font-style:normal;font-weight:normal;line-height:125%;letter-spacing:0px;word-spacing:0px;fill:#ffffff;fill-opacity:1;stroke:none;font-family:Sans"
         x="629.3891"
         y="-250.11517"
         id="text3751"
         sodipodi:linespacing="125%"
         transform="matrix(0.99998636,0.00522349,-0.00522349,0.99998636,0,0)"><tspan
           sodipodi:role="line"
           id="tspan3753"
           x="629.3891"
           y="-250.11517"
           style="font-style:normal;font-variant:normal;font-weight:bold;font-stretch:normal;fill:#ffffff;font-family:Arial;-inkscape-font-specification:Arial Bold">.io</tspan></text>
    </g>
  </g>
</svg>
